<?xml version="1.0" encoding="iso-8859-1"?>
<!-- Generator: Adobe Illustrator 19.0.0, SVG Export Plug-In . SVG Version: 6.00 Build 0)  -->
<svg version="1.1" id="Layer_1" xmlns="http://www.w3.org/2000/svg" xmlns:xlink="http://www.w3.org/1999/xlink" x="0px" y="0px"
	 viewBox="0 0 512.001 512.001" style="enable-background:new 0 0 512.001 512.001;" xml:space="preserve">
<path style="fill:#FF413C;" d="M105.932,231.729c-17.655,8.828-61.793,44.138-61.793,88.276s35.31,97.103,132.414,150.069
	c0,0,61.793-70.621,61.793-105.931c0-26.483,0-132.414,0-132.414H105.932z"/>
<path style="fill:#C53C3C;" d="M72.409,258.212h165.937c0-15.615,0-26.483,0-26.483H105.932
	C97.977,235.706,84.657,245.095,72.409,258.212z"/>
<path style="fill:#FF413C;" d="M40.027,46.35c-27.037,0-40.691,16.414-40.001,35.315c0.211,5.783,2.85,11.374,4.691,17.651
	c12.94,44.138,8.828,79.448,8.828,97.103s17.655,44.138,44.138,44.138s198.319,0,198.319,0v-8.828
	C194.208,125.798,75.337,46.35,40.027,46.35z"/>
<path style="fill:#C53C3C;" d="M256.001,231.729C194.208,125.798,75.336,46.35,40.026,46.35c-27.037,0-40.691,16.414-40.001,35.315
	c0.211,5.783,2.85,11.374,4.691,17.651c6.2,21.15,8.437,40.19,9.135,56.314c32.703-24.374,118.397-51.548,233.322,84.927
	c5.562,0,8.828,0,8.828,0V231.729z"/>
<path style="fill:#E6C3B4;" d="M238.345,267.04c-44.138,97.103-61.793,203.034-61.793,203.034s61.793-70.621,61.793-105.931
	C238.345,347.655,238.345,300.381,238.345,267.04z"/>
<path style="fill:#FF413C;" d="M406.07,231.729c17.655,8.828,61.793,44.138,61.793,88.276s-35.31,97.103-132.414,150.069
	c0,0-61.793-70.621-61.793-105.931c0-26.483,0-132.414,0-132.414H406.07z"/>
<path style="fill:#C53C3C;" d="M439.592,258.212H273.656c0-15.615,0-26.483,0-26.483H406.07
	C414.024,235.706,427.344,245.095,439.592,258.212z"/>
<path style="fill:#FF413C;" d="M471.975,46.35c27.037,0,40.691,16.414,40.001,35.315c-0.211,5.783-2.85,11.374-4.691,17.651
	c-12.94,44.138-8.828,79.448-8.828,97.103s-17.655,44.138-44.138,44.138s-198.319,0-198.319,0v-8.828
	C317.794,125.798,436.665,46.35,471.975,46.35z"/>
<path style="fill:#C53C3C;" d="M256.001,231.729C317.794,125.798,436.665,46.35,471.975,46.35c27.037,0,40.691,16.414,40.001,35.315
	c-0.211,5.783-2.85,11.374-4.691,17.651c-6.2,21.15-8.437,40.19-9.135,56.314c-32.702-24.374-118.397-51.548-233.322,84.927
	c-5.562,0-8.828,0-8.828,0V231.729z"/>
<path style="fill:#E6C3B4;" d="M273.656,267.04c44.138,97.103,61.793,203.034,61.793,203.034s-61.793-70.621-61.793-105.931
	C273.656,347.655,273.656,300.381,273.656,267.04z"/>
<path style="fill:#908490;" d="M264.828,192.005h-17.655c-1.931,0-3.638-1.255-4.215-3.1L198.82,47.664
	c-0.724-2.323,0.569-4.802,2.897-5.526c2.37-0.737,4.802,0.574,5.535,2.897l43.164,138.142h11.172l43.164-138.142
	c0.733-2.327,3.172-3.647,5.535-2.897c2.327,0.724,3.62,3.202,2.897,5.526l-44.138,141.241
	C268.466,190.75,266.759,192.005,264.828,192.005z"/>
<path style="fill:#463246;" d="M256.001,214.074L256.001,214.074c-9.751,0-17.655-7.904-17.655-17.655l0,0
	c0-9.751,7.904-17.655,17.655-17.655l0,0c9.751,0,17.655,7.904,17.655,17.655l0,0C273.656,206.169,265.752,214.074,256.001,214.074z
	"/>
<path style="fill:#5A464B;" d="M256.001,302.35L256.001,302.35c-9.751,0-17.655-7.904-17.655-17.655v-61.793
	c0-9.751,7.904-17.655,17.655-17.655l0,0c9.751,0,17.655,7.904,17.655,17.655v61.793C273.656,294.445,265.752,302.35,256.001,302.35
	z"/>
<g>
</g>
<g>
</g>
<g>
</g>
<g>
</g>
<g>
</g>
<g>
</g>
<g>
</g>
<g>
</g>
<g>
</g>
<g>
</g>
<g>
</g>
<g>
</g>
<g>
</g>
<g>
</g>
<g>
</g>
</svg>
